<svg width="155" height="39" viewBox="0 0 155 39" fill="none" xmlns="http://www.w3.org/2000/svg">
<path d="M44.284 2.7375L33.0552 2.625V37.5H44.7332C54.8391 37.5 62.8116 33.7875 62.8116 19.95C62.9239 5.775 53.8285 2.7375 44.284 2.7375ZM45.4069 29.5125H43.7226V10.725H45.5192C49.6738 10.725 51.1336 12.8625 51.1336 19.95C51.1336 27.15 49.8984 29.5125 45.4069 29.5125ZM65.6188 37.5H75.7247V2.625H65.6188V37.5ZM95.1506 24.45H98.0701V29.85C97.1718 30.3 96.3858 30.525 95.1506 30.525C91.5574 30.525 90.0977 28.3875 90.0977 20.0625C90.0977 13.0875 92.3434 9.6 97.0595 9.6C99.6422 9.6 101.326 10.5 103.348 12.1875L109.074 6.3375C106.379 3.75 101.776 1.6125 96.3858 1.6125C85.943 1.6125 78.4197 8.1375 78.4197 19.95C78.4197 31.7625 83.4726 38.625 95.7121 38.625C99.979 38.625 105.593 36.825 109.411 34.125V17.25H93.6909L95.1506 24.45ZM112.78 37.5H122.886V2.625H112.78V37.5ZM125.132 2.625V11.625H134.115V37.5H144.221V11.625H152.081L154.327 2.625H125.132ZM8.3517 26.25H20.7034V22.875H8.3517V26.25ZM20.7034 6H1.6144V9.375H20.7034V6ZM20.7034 0.375H8.23942L4.30932 3.75H20.7034V0.375ZM20.7034 17.25H8.3517V20.625H20.7034V17.25ZM20.7034 11.625H8.3517V15H20.7034V11.625ZM0.491516 31.875H27.4407V28.5H0.491516V31.875ZM0.491516 37.5H27.4407V34.125H0.491516V37.5Z" fill="#227445"/>
</svg>
