<svg width="137" height="34" viewBox="0 0 137 34" fill="none" xmlns="http://www.w3.org/2000/svg">
<path d="M39 2.1L29 2V33H39.4C48.4 33 55.5 29.7 55.5 17.4C55.6 4.8 47.5 2.1 39 2.1ZM40 25.9H38.5V9.2H40.1C43.8 9.2 45.1 11.1 45.1 17.4C45.1 23.8 44 25.9 40 25.9ZM58 33H67V2H58V33ZM84.3 21.4H86.9V26.2C86.1 26.6 85.4 26.8 84.3 26.8C81.1 26.8 79.8 24.9 79.8 17.5C79.8 11.3 81.8 8.2 86 8.2C88.3 8.2 89.8 9 91.6 10.5L96.7 5.3C94.3 3 90.2 1.1 85.4 1.1C76.1 1.1 69.4 6.9 69.4 17.4C69.4 27.9 73.9 34 84.8 34C88.6 34 93.6 32.4 97 30V15H83L84.3 21.4ZM100 33H109V2H100V33ZM111 2V10H119V33H128V10H135L137 2H111ZM7 23H18V20H7V23ZM18 5H1V8H18V5ZM18 0H6.9L3.4 3H18V0ZM18 15H7V18H18V15ZM18 10H7V13H18V10ZM0 28H24V25H0V28ZM0 33H24V30H0V33Z" fill="#183424"/>
</svg>
